# xmcd
#
# Track frame offsets:
#	150
#	12976
#	25932
#	44037
#	58375
#	72464
#	89299
#	104574
#	117725
#	132296
#	149223
#	163869
#	176527
#	194284
#	209361
#	226852
#	241435
#	256480
#	272234
#	287846
#
# Disc length: 4023 seconds
# Revision: 1
# Processed by: cddbd v1.5.2PL0 Copyright (c) Steve Scherf et al.
# Submitted via: dBpowerAMP V12.0
#
DISCID=470fb514
DTITLE=Lasse Stefanz 2012 - Vår Bästa Country 2/2
DYEAR=2012
DGENRE=Country
TTITLE0=Jackson
TTITLE1=Säg Till När du Är Klar
TTITLE2=California Blue
TTITLE3=Tid Att Ta Farväl
TTITLE4=En Slant I Min Jukebox
TTITLE5=Innan Allt Är För Sent
TTITLE6=Jag Ångrar Mig
TTITLE7=Det Är Samma Blåa Ögon
TTITLE8=Etthundra Mil Från Dig
TTITLE9=Morgongåva
TTITLE10=För Många Minnen Kvar
TTITLE11=Wait a Minute
TTITLE12=Today I Started Loving You
TTITLE13=Kan VI Två Trots Allt Va´ Vänner
TTITLE14=Orden Som Mor Min Sa
TTITLE15=Du Och Jag (Med Becky Hobbs)
TTITLE16=Nu Får Det Vara Slut
TTITLE17=Mitt Hjärta Tar Semester Nu
TTITLE18=En Flicka Från Igår
TTITLE19=Om Himlen Och Österlen
EXTD=
EXTT0=
EXTT1=
EXTT2=
EXTT3=
EXTT4=
EXTT5=
EXTT6=
EXTT7=
EXTT8=
EXTT9=
EXTT10=
EXTT11=
EXTT12=
EXTT13=
EXTT14=
EXTT15=
EXTT16=
EXTT17=
EXTT18=
EXTT19=
PLAYORDER=
